<svg xmlns="http://www.w3.org/2000/svg" width="190" height="100" viewBox="0 0 190 100">
  <g id="Grupo_109734" data-name="Grupo 109734" transform="translate(-180 -392)">
    <g id="Grupo_109728" data-name="Grupo 109728" transform="translate(0 -1090)">
      <path id="Trazado_113723" data-name="Trazado 113723" d="M-72.06,10.548c-4.477.05-6.13,3.173-2.337,4.452,6.3,2.121,12.513,4.55,18.547,7.263A177.319,177.319,0,0,1-32.831,34.648c5.278,3.394,15.486,2.36,18.155-1.823,2.056-3.221,2.858-6.957-.234-10.426-1.934-2.169-5.253-3.9-9.238-5C-45.161,11.608-61.544,10.43-72.06,10.548Z" transform="translate(382.855 1471.46)" fill="#a2e6b0" opacity="0.2"/>
      <path id="blob" d="M14.578,76.777C1.92,55.917,14.714,27.111,42.343,16.268,69.976,5.341,112.305,12.46,146.059,27.277s58.933,37.249,50.495,54.548c-8.44,17.383-50.5,29.551-90.783,29.137C65.62,110.548,27.239,97.636,14.578,76.777Z" transform="translate(170.321 1471.027)" fill="#a2e6b0" opacity="0.2"/>
    </g>
    <g id="cilindro" transform="translate(195.484 392)">
      <g id="Grupo_109732" data-name="Grupo 109732" transform="translate(37.981 1.465)">
        <path id="Trazado_113982" data-name="Trazado 113982" d="M44.015,109.935v57.057h82.806V109.935" transform="translate(-44.015 -89.928)" fill="#48a5f0"/>
        <path id="Trazado_113983" data-name="Trazado 113983" d="M59.238,84.42V151.8l-15.223-5.344V89.4Z" transform="translate(-44.015 -69.397)" fill="#78baf0"/>
        <ellipse id="Elipse_4955" data-name="Elipse 4955" cx="41.403" cy="20.007" rx="41.403" ry="20.007" transform="translate(0 57.057)" fill="#3c8ac9"/>
        <ellipse id="Elipse_4956" data-name="Elipse 4956" cx="41.403" cy="20.007" rx="41.403" ry="20.007" fill="#b2d4f0"/>
      </g>
      <g id="Grupo_109733" data-name="Grupo 109733" transform="translate(36.516 0)">
        <path id="Trazado_113984" data-name="Trazado 113984" d="M127.011,307.091a1.46,1.46,0,0,0,.477-.08c1.806-.622,3.731-1.176,5.721-1.646a1.465,1.465,0,1,0-.673-2.851c-2.085.492-4.1,1.073-6,1.727a1.465,1.465,0,0,0,.477,2.85Z" transform="translate(-108.157 -243.397)"/>
        <path id="Trazado_113985" data-name="Trazado 113985" d="M198.026,296.057a1.493,1.493,0,0,0,.179-.011c1.952-.238,3.961-.406,5.971-.5a1.465,1.465,0,0,0-.138-2.926c-2.083.1-4.164.273-6.188.519a1.465,1.465,0,0,0,.175,2.919Z" transform="translate(-165.304 -235.465)"/>
        <path id="Trazado_113986" data-name="Trazado 113986" d="M63.449,334.355a1.459,1.459,0,0,0,.975-.372,27.071,27.071,0,0,1,4.728-3.316,1.465,1.465,0,1,0-1.438-2.552,30.013,30.013,0,0,0-5.239,3.682,1.465,1.465,0,0,0,.975,2.558Z" transform="translate(-57.01 -263.878)"/>
        <path id="Trazado_113987" data-name="Trazado 113987" d="M414.988,333.993a1.465,1.465,0,1,0,1.951-2.186,29.991,29.991,0,0,0-5.239-3.683,1.465,1.465,0,0,0-1.439,2.552A27.089,27.089,0,0,1,414.988,333.993Z" transform="translate(-336.664 -263.886)"/>
        <path id="Trazado_113988" data-name="Trazado 113988" d="M276.7,296.046a1.465,1.465,0,1,0,.354-2.908c-2.023-.246-4.1-.421-6.187-.519a1.465,1.465,0,0,0-.138,2.927C272.739,295.64,274.748,295.809,276.7,296.046Z" transform="translate(-223.861 -235.465)"/>
        <path id="Trazado_113989" data-name="Trazado 113989" d="M348.305,307.015a1.465,1.465,0,0,0,.954-2.77c-1.9-.654-3.917-1.235-6-1.728a1.465,1.465,0,1,0-.673,2.851C344.575,305.839,346.5,306.393,348.305,307.015Z" transform="translate(-281.897 -243.4)"/>
        <path id="Trazado_113990" data-name="Trazado 113990" d="M122.25,21.438c-.016-5.433-3.968-10.58-11.134-14.5A1.465,1.465,0,0,0,109.71,9.51c6.2,3.388,9.611,7.636,9.611,11.961,0,4.752-4.012,9.308-11.3,12.829-7.625,3.685-17.8,5.714-28.639,5.714S58.37,37.984,50.745,34.3c-7.286-3.521-11.3-8.077-11.3-12.829s4.013-9.307,11.3-12.827C58.37,4.959,68.541,2.93,79.384,2.93a72.359,72.359,0,0,1,24.3,3.9,1.465,1.465,0,1,0,1-2.754A75.3,75.3,0,0,0,79.384,0C68.108,0,57.485,2.133,49.47,6.005c-8.353,4.037-12.954,9.529-12.954,15.465V55.1a1.465,1.465,0,0,0,2.93,0V29.4A27.843,27.843,0,0,0,49.47,36.938c8.014,3.873,18.638,6.006,29.914,6.006s21.9-2.133,29.914-6.006A27.842,27.842,0,0,0,119.323,29.4V78.528c0,4.751-4.013,9.307-11.3,12.828-7.625,3.685-17.8,5.714-28.639,5.714S58.37,95.041,50.745,91.356c-7.263-3.509-11.273-8.047-11.3-12.781,0-.015,0-.031,0-.046V61.939a1.465,1.465,0,1,0-2.93,0V78.478c0,.017,0,.033,0,.05,0,5.937,4.6,11.429,12.954,15.466C57.485,97.867,68.108,100,79.384,100s21.9-2.133,29.914-6.006c8.354-4.037,12.954-9.529,12.954-15.466V21.472c0-.012,0-.022,0-.034Z" transform="translate(-36.516 0)"/>
      </g>
    </g>
  </g>
</svg>
