<svg xmlns="http://www.w3.org/2000/svg" xmlns:xlink="http://www.w3.org/1999/xlink" width="90.874" height="82.357" viewBox="0 0 90.874 82.357">
  <defs>
    <linearGradient id="linear-gradient" y1="0.5" x2="1" y2="0.5" gradientUnits="objectBoundingBox">
      <stop offset="0.032" stop-color="#48a5f0"/>
      <stop offset="1" stop-color="#3d5075"/>
    </linearGradient>
    <linearGradient id="linear-gradient-2" x1="0.106" y1="0.808" x2="0.894" y2="0.192" gradientUnits="objectBoundingBox">
      <stop offset="0.032" stop-color="#a2e6b0"/>
      <stop offset="1" stop-color="#48a5f0"/>
    </linearGradient>
  </defs>
  <g id="Grupo_108303" data-name="Grupo 108303" transform="translate(-25 -23.686)">
    <path id="Trazado_113529" data-name="Trazado 113529" d="M37.075,102.854c2.677,2.588,6.931,2.95,10.647,3.166s7.745-1.086,9.817-4.179c1.289-1.925,1.686-4.29,2.143-6.562C62.406,81.723,70.141,67.3,83.636,64.286c6.236-1.393,12.775-.094,19.107-.95s13.17-5.213,13.131-11.6c-.133-21.913-33.355-33.159-56.205-22.9C37.448,38.805,8.151,74.893,37.075,102.854Z" fill="url(#linear-gradient)"/>
    <circle id="Elipse_4716" data-name="Elipse 4716" cx="12.714" cy="12.714" r="12.714" transform="translate(25 36.4)" fill="url(#linear-gradient-2)"/>
    <circle id="Elipse_4717" data-name="Elipse 4717" cx="8.539" cy="8.539" r="8.539" transform="translate(53.358 23.686)" fill="url(#linear-gradient-2)"/>
  </g>
</svg>
