<svg xmlns="http://www.w3.org/2000/svg" width="190" height="100" viewBox="0 0 190 100">
  <g id="Grupo_109729" data-name="Grupo 109729" transform="translate(-180 -1482)">
    <g id="Grupo_109728" data-name="Grupo 109728">
      <path id="Trazado_113723" data-name="Trazado 113723" d="M-72.06,10.548c-4.477.05-6.13,3.173-2.337,4.452,6.3,2.121,12.513,4.55,18.547,7.263A177.319,177.319,0,0,1-32.831,34.648c5.278,3.394,15.486,2.36,18.155-1.823,2.056-3.221,2.858-6.957-.234-10.426-1.934-2.169-5.253-3.9-9.238-5C-45.161,11.608-61.544,10.43-72.06,10.548Z" transform="translate(382.855 1471.46)" fill="#a2e6b0" opacity="0.2"/>
      <path id="blob" d="M14.578,76.777C1.92,55.917,14.714,27.111,42.343,16.268,69.976,5.341,112.305,12.46,146.059,27.277s58.933,37.249,50.495,54.548c-8.44,17.383-50.5,29.551-90.783,29.137C65.62,110.548,27.239,97.636,14.578,76.777Z" transform="translate(170.321 1471.027)" fill="#a2e6b0" opacity="0.2"/>
    </g>
    <g id="realidad-virtual" transform="translate(227.998 1482)">
      <path id="Trazado_113968" data-name="Trazado 113968" d="M95.454,319.277a3.137,3.137,0,0,0,3.092-3.665l-2-11.717a13.7,13.7,0,0,0-9.826-10.889l-19.991-4.248c-2.084-.419-3.584-2.837-3.584-4.963V274.32h-20.2V283.8c0,2.126-1.5,4.544-3.584,4.963l-19.991,4.248a13.7,13.7,0,0,0-9.825,10.889l-2,11.717a3.138,3.138,0,0,0,3.092,3.665Zm0,0" transform="translate(-6.032 -220.742)" fill="#ffede1"/>
      <path id="Trazado_113969" data-name="Trazado 113969" d="M169.5,14.176c-6.139-6.7-15.4-6.676-15.4-6.676h-2.535s-9.262-.028-15.4,6.676a18.091,18.091,0,0,0-4.63,13.244l1.093,19.469a18.3,18.3,0,0,0,3.142,9.281c2.156,3.166,10,10.13,11.782,10.891a13.464,13.464,0,0,0,10.566,0c1.784-.761,9.626-7.725,11.782-10.891a18.312,18.312,0,0,0,3.142-9.28c.314-5.614.823-14.675,1.093-19.472a18.083,18.083,0,0,0-4.63-13.241Zm0,0" transform="translate(-105.814 -6.035)" fill="#ffede1"/>
      <path id="Trazado_113970" data-name="Trazado 113970" d="M234.015,14.176c-6.139-6.7-15.4-6.676-15.4-6.676h-2.535a21.777,21.777,0,0,0-4.4.577,21.167,21.167,0,0,1,11,6.1,18.08,18.08,0,0,1,4.63,13.24c-.269,4.8-.777,13.858-1.093,19.473a18.307,18.307,0,0,1-3.141,9.28c-2.026,2.975-9.074,9.3-11.4,10.687a3.372,3.372,0,0,0,.386.2,13.464,13.464,0,0,0,10.566,0c1.784-.761,9.626-7.724,11.782-10.89a18.314,18.314,0,0,0,3.142-9.28c.314-5.615.823-14.675,1.093-19.473a18.083,18.083,0,0,0-4.63-13.241Zm0,0" transform="translate(-170.332 -6.035)" fill="#ffe1cc"/>
      <path id="Trazado_113971" data-name="Trazado 113971" d="M98.548,376.627l-2-11.717a13.7,13.7,0,0,0-9.826-10.889l-18.24-3.876-.125.087a26.8,26.8,0,0,1-30.62,0l-.125-.087-18.24,3.876a13.7,13.7,0,0,0-9.825,10.889l-2,11.717a3.138,3.138,0,0,0,3.092,3.665h84.82a3.137,3.137,0,0,0,3.092-3.665Zm0,0" transform="translate(-6.033 -281.757)" fill="#48a5f0"/>
      <path id="Trazado_113972" data-name="Trazado 113972" d="M304.7,377.352c0-.038,0-.076.005-.114v-.016q0-.058,0-.117v-.015c0-.039,0-.078-.005-.117,0-.005,0-.011,0-.017s0-.037,0-.055a.021.021,0,0,1,0-.007c0-.018,0-.037-.005-.055a.124.124,0,0,1,0-.017l-.007-.055s0,0,0-.007c0-.018,0-.037-.008-.055l0-.018-.009-.055a.007.007,0,0,0,0,0l-2-11.716a13.7,13.7,0,0,0-9.825-10.889l-18.24-3.876-.125.087a26.768,26.768,0,0,1-10.83,4.426l17.271,3.67a13.7,13.7,0,0,1,9.826,10.889l1.891,11.075h8.942l.091,0,.045,0c.059,0,.12-.007.179-.012l.044,0c.088-.01.175-.024.26-.041l.085-.018c.07-.017.14-.035.208-.056s.109-.034.162-.054c.094-.034.185-.072.274-.114l.05-.025.013-.006c.034-.017.066-.034.1-.053l.012-.006.1-.056.012-.008.045-.028,0,0,.046-.03.011-.008.045-.031,0,0,.043-.031.011-.008.044-.032,0,0,.044-.034.009-.007.086-.072.011-.008.084-.074.008-.008c.027-.026.055-.052.082-.079l.008-.008.078-.082.008-.009c.025-.027.05-.055.074-.083l.009-.01.07-.086.008-.011.067-.088.008-.012c.021-.03.043-.059.063-.09l.007-.011c.021-.031.041-.063.061-.095l.006-.01.057-.1.005-.01c.018-.033.036-.066.053-.1l.006-.012c.017-.033.033-.066.048-.1l.006-.013c.015-.034.03-.068.045-.1l0-.013c.015-.034.028-.069.04-.1a.057.057,0,0,0,0-.012c.013-.035.025-.071.037-.106l0-.015c.011-.035.022-.071.032-.107,0,0,0-.009,0-.014.01-.036.019-.073.027-.109a.085.085,0,0,0,0-.014c.008-.037.017-.074.024-.111l0-.015c.008-.037.014-.074.019-.112l0-.014c.005-.038.01-.076.014-.114,0,0,0-.009,0-.014,0-.038.008-.076.01-.114,0-.005,0-.01,0-.015Zm0,0" transform="translate(-212.147 -281.76)" fill="#1d92f0"/>
      <path id="Trazado_113973" data-name="Trazado 113973" d="M245.972,299.212V293.48a28.928,28.928,0,0,1-4.817,3.706,13.462,13.462,0,0,1-6.455,1.028v5.429c0,2.126,1.5,4.544,3.584,4.963l2.055.452.012,0a26.761,26.761,0,0,0,10.831-4.426l.125-.087-1.751-.372C247.471,303.757,245.972,301.339,245.972,299.212Zm0,0" transform="translate(-188.858 -236.16)" fill="#ffe1cc"/>
      <path id="Trazado_113974" data-name="Trazado 113974" d="M105.011,122.868h-6.5a1.552,1.552,0,0,1-1.552-1.552v-12.69a1.552,1.552,0,0,1,1.552-1.552h6.5Zm0,0" transform="translate(-78.022 -86.162)" fill="#465058"/>
      <path id="Trazado_113975" data-name="Trazado 113975" d="M343.191,122.868h6.5a1.551,1.551,0,0,0,1.552-1.552v-12.69a1.552,1.552,0,0,0-1.552-1.552h-6.5Zm0,0" transform="translate(-276.161 -86.162)" fill="#323e44"/>
      <path id="Trazado_113976" data-name="Trazado 113976" d="M119.277,98.977v16.858a1.3,1.3,0,0,0,1.3,1.3H137.04a5.748,5.748,0,0,0,2.975-.829,5.754,5.754,0,0,1,5.949,0,5.748,5.748,0,0,0,2.975.829H165.4a1.3,1.3,0,0,0,1.3-1.3V98.977a1.305,1.305,0,0,0-1.3-1.3H120.582a1.305,1.305,0,0,0-1.3,1.3Zm0,0" transform="translate(-95.98 -78.596)" fill="#dae5ea"/>
      <path id="Trazado_113977" data-name="Trazado 113977" d="M314.214,97.672h-10v19.466h10a1.3,1.3,0,0,0,1.3-1.3V98.977a1.305,1.305,0,0,0-1.3-1.3Zm0,0" transform="translate(-244.797 -78.595)" fill="#c9d1d3"/>
      <path id="Trazado_113978" data-name="Trazado 113978" d="M262.158,122.965a.69.69,0,0,1-.025-.126c0-.4.591-.679,1.031-.679.277,0,.491.088.553.327l1.924,6.815,1.911-6.815c.063-.24.277-.327.553-.327.44,0,1.031.289,1.031.679a.536.536,0,0,1-.026.126l-2.414,7.909c-.113.378-.578.553-1.056.553a1.038,1.038,0,0,1-1.056-.553Zm0,0" transform="translate(-210.934 -98.3)"/>
      <path id="Trazado_113979" data-name="Trazado 113979" d="M302.431,122.667a.51.51,0,0,1,.528-.5h2.489c1.647,0,2.98.629,2.98,2.628a2.363,2.363,0,0,1-1.647,2.515l1.647,3.056a.339.339,0,0,1,.063.2,1.057,1.057,0,0,1-1.019.854.643.643,0,0,1-.565-.39l-1.785-3.471h-1.057v3.282c0,.34-.4.516-.817.516s-.818-.176-.818-.516v-8.173Zm1.634.93v2.678h1.383a1.339,1.339,0,1,0,0-2.678Zm0,0" transform="translate(-243.361 -98.304)"/>
      <path id="Trazado_113980" data-name="Trazado 113980" d="M93.959,94.624l-.835-4.889a1.465,1.465,0,1,0-2.888.494l.835,4.888a1.673,1.673,0,0,1-1.649,1.954H79.155L77.321,85.8a1.465,1.465,0,0,0-2.892.471l1.758,10.8H17.839l1.757-10.8A1.465,1.465,0,0,0,16.7,85.8L14.871,97.07H4.6a1.672,1.672,0,0,1-1.648-1.954l2-11.716a12.3,12.3,0,0,1,6.976-9.067,1.449,1.449,0,0,0,.525-.226,12.043,12.043,0,0,1,1.231-.42l17.58-3.735a28.272,28.272,0,0,0,31.491,0l17.579,3.735A12.284,12.284,0,0,1,89.07,83.4a1.465,1.465,0,1,0,2.888-.494A15.227,15.227,0,0,0,81.082,70.853c-.029-.008-.059-.015-.089-.021l-18.24-3.876-1.766-.375a3.7,3.7,0,0,1-2.408-3.526V57.979a49.585,49.585,0,0,0,6.71-7.019,19.765,19.765,0,0,0,3.394-10.022l.052-.93h.684a2.773,2.773,0,0,0,2.607-1.836h1.5a3.02,3.02,0,0,0,3.017-3.016V22.465a3.02,3.02,0,0,0-3.017-3.017h-1.5a2.776,2.776,0,0,0-2.4-1.829A19.414,19.414,0,0,0,64.764,7.153C58.31.105,48.825,0,48.291,0H45.749c-.412,0-9.984.052-16.486,7.151A19.409,19.409,0,0,0,24.4,17.619a2.776,2.776,0,0,0-2.409,1.83h-1.5a3.02,3.02,0,0,0-3.017,3.017v4.881H15.191a5.034,5.034,0,0,0-5.029,5.029V71.937a15.24,15.24,0,0,0-8.094,10.97l-2,11.717A4.6,4.6,0,0,0,4.6,100h84.82a4.6,4.6,0,0,0,4.536-5.376ZM72.186,22.378h1.342a.087.087,0,0,1,.087.087v12.69a.087.087,0,0,1-.087.087H72.186ZM58.874,68.868a25.359,25.359,0,0,1-23.725,0,7.021,7.021,0,0,0,3.229-5.813V60.471a15.54,15.54,0,0,0,2.778,1.9,15,15,0,0,0,11.715,0,15.527,15.527,0,0,0,2.778-1.9v2.583a7.03,7.03,0,0,0,3.226,5.814ZM31.424,9.13c5.609-6.125,14.233-6.2,14.321-6.2h2.541c.127,0,8.694.06,14.317,6.2a16.443,16.443,0,0,1,4.057,8.481H27.366A16.444,16.444,0,0,1,31.424,9.13ZM24.762,20.542H69.257V37.078h-16.3a4.287,4.287,0,0,1-2.218-.618,7.2,7.2,0,0,0-7.463,0,4.287,4.287,0,0,1-2.218.618H38.415a1.465,1.465,0,1,0,0,2.93H41.06a7.216,7.216,0,0,0,3.732-1.04,4.279,4.279,0,0,1,4.434,0,7.214,7.214,0,0,0,3.732,1.04H65.8l-.043.765a16.838,16.838,0,0,1-2.889,8.537c-2.115,3.106-9.8,9.8-11.146,10.368a12.058,12.058,0,0,1-9.417,0,29.069,29.069,0,0,1-4.4-3.439l-.038-.034q-.434-.383-.9-.807a44.222,44.222,0,0,1-5.805-6.088,16.842,16.842,0,0,1-2.89-8.539l-.043-.764h3.367a1.465,1.465,0,1,0,0-2.93H24.762ZM20.4,22.465a.087.087,0,0,1,.087-.087h1.342V35.242H20.49a.087.087,0,0,1-.087-.087Zm-7.311,9.909a2.1,2.1,0,0,1,2.1-2.1h2.283v4.88a3.02,3.02,0,0,0,3.017,3.017h1.5A2.774,2.774,0,0,0,24.6,40.008h.69l.053.928A19.768,19.768,0,0,0,28.738,50.96a49.583,49.583,0,0,0,6.71,7.019v5.074a3.7,3.7,0,0,1-2.424,3.53l-1.75.372L13.092,70.819Zm0,0" transform="translate(0 0)"/>
    </g>
  </g>
</svg>
